<svg width="32" height="32" viewBox="0 0 32 32" fill="none" xmlns="http://www.w3.org/2000/svg">
<path d="M28.5714 2H3.42857C1.53571 2 0 3.34375 0 5V27C0 28.6562 1.53571 30 3.42857 30H28.5714C30.4643 30 32 28.6562 32 27V5C32 3.34375 30.4643 2 28.5714 2ZM19.8071 25.9813C19.2071 26.075 18.9857 25.75 18.9857 25.4813C18.9857 25.1438 19 23.4187 19 22.025C19 21.05 18.6286 20.4313 18.1929 20.1063C20.8357 19.85 23.6214 19.5312 23.6214 15.5375C23.6214 14.4 23.1571 13.8313 22.4 13.1C22.5214 12.8313 22.9286 11.725 22.2786 10.2875C21.2857 10.0188 19.0143 11.4062 19.0143 11.4062C18.0714 11.175 17.05 11.0562 16.0429 11.0562C15.0357 11.0562 14.0143 11.175 13.0714 11.4062C13.0714 11.4062 10.8 10.0188 9.80714 10.2875C9.15714 11.7188 9.55714 12.825 9.68571 13.1C8.92857 13.8313 8.57143 14.4 8.57143 15.5375C8.57143 19.5125 11.2357 19.85 13.8786 20.1063C13.5357 20.375 13.2286 20.8375 13.1214 21.5C12.4429 21.7687 10.7071 22.2313 9.67143 20.6313C9.02143 19.6438 7.85 19.5625 7.85 19.5625C6.69286 19.55 7.77143 20.2 7.77143 20.2C8.54286 20.5125 9.08571 21.7125 9.08571 21.7125C9.77857 23.5688 13.0929 22.9438 13.0929 22.9438C13.0929 23.8125 13.1071 25.225 13.1071 25.4813C13.1071 25.75 12.8929 26.075 12.2857 25.9813C7.57143 24.6 4.27143 20.675 4.27143 16.0875C4.27143 10.35 9.28572 5.99375 15.8429 5.99375C22.4 5.99375 27.7143 10.35 27.7143 16.0875C27.7214 20.675 24.5214 24.6063 19.8071 25.9813ZM12.8 22.1625C12.6643 22.1875 12.5357 22.1375 12.5214 22.0562C12.5071 21.9625 12.6 21.8813 12.7357 21.8563C12.8714 21.8438 13 21.8938 13.0143 21.975C13.0357 22.0562 12.9429 22.1375 12.8 22.1625ZM12.1214 22.1063C12.1214 22.1875 12.0143 22.2563 11.8714 22.2563C11.7143 22.2688 11.6071 22.2 11.6071 22.1063C11.6071 22.025 11.7143 21.9562 11.8571 21.9562C11.9929 21.9437 12.1214 22.0125 12.1214 22.1063ZM11.1429 22.0375C11.1143 22.1187 10.9714 22.1562 10.85 22.1187C10.7143 22.0938 10.6214 22 10.65 21.9188C10.6786 21.8375 10.8214 21.8 10.9429 21.825C11.0857 21.8625 11.1786 21.9563 11.1429 22.0375ZM10.2643 21.7C10.2 21.7688 10.0643 21.7563 9.95714 21.6625C9.85 21.5813 9.82143 21.4625 9.89286 21.4062C9.95714 21.3375 10.0929 21.35 10.2 21.4438C10.2929 21.525 10.3286 21.65 10.2643 21.7ZM9.61429 21.1313C9.55 21.1688 9.42857 21.1313 9.35 21.0375C9.27143 20.9438 9.27143 20.8375 9.35 20.7938C9.42857 20.7375 9.55 20.7812 9.61429 20.875C9.69286 20.9688 9.69286 21.0813 9.61429 21.1313ZM9.15 20.525C9.08572 20.5812 8.97857 20.55 8.9 20.4875C8.82143 20.4062 8.80714 20.3125 8.87143 20.2687C8.93571 20.2125 9.04286 20.2437 9.12143 20.3062C9.2 20.3875 9.21429 20.4812 9.15 20.525ZM8.67143 20.0625C8.64286 20.1187 8.55 20.1313 8.47143 20.0875C8.37857 20.05 8.33571 19.9812 8.36429 19.925C8.39286 19.8875 8.47143 19.8687 8.56429 19.9C8.65714 19.9438 8.7 20.0125 8.67143 20.0625Z" fill="#C6C6C6"/>
</svg>
