<svg width="37" height="34" viewBox="0 0 37 34" fill="none" xmlns="http://www.w3.org/2000/svg">
<path d="M1.32143 8.76562H35.6786C36.4084 8.76562 37 8.28996 37 7.70312V5.04688C37 4.46004 36.4084 3.98438 35.6786 3.98438H1.32143C0.591587 3.98438 0 4.46004 0 5.04688V7.70312C0 8.28996 0.591587 8.76562 1.32143 8.76562ZM1.32143 19.3906H35.6786C36.4084 19.3906 37 18.915 37 18.3281V15.6719C37 15.085 36.4084 14.6094 35.6786 14.6094H1.32143C0.591587 14.6094 0 15.085 0 15.6719V18.3281C0 18.915 0.591587 19.3906 1.32143 19.3906ZM1.32143 30.0156H35.6786C36.4084 30.0156 37 29.54 37 28.9531V26.2969C37 25.71 36.4084 25.2344 35.6786 25.2344H1.32143C0.591587 25.2344 0 25.71 0 26.2969V28.9531C0 29.54 0.591587 30.0156 1.32143 30.0156Z" fill="white"/>
</svg>
