<svg width="32" height="31" viewBox="0 0 32 31" fill="none" xmlns="http://www.w3.org/2000/svg">
<path d="M30.5364 7.51284C30.1874 6.0809 29.1593 4.95316 27.8539 4.57044C25.4878 3.875 16 3.875 16 3.875C16 3.875 6.5122 3.875 4.14604 4.57044C2.84065 4.95322 1.81253 6.0809 1.46359 7.51284C0.82959 10.1083 0.82959 15.5235 0.82959 15.5235C0.82959 15.5235 0.82959 20.9387 1.46359 23.5341C1.81253 24.9661 2.84065 26.0468 4.14604 26.4296C6.5122 27.125 16 27.125 16 27.125C16 27.125 25.4878 27.125 27.8539 26.4296C29.1593 26.0468 30.1874 24.9661 30.5364 23.5341C31.1704 20.9387 31.1704 15.5235 31.1704 15.5235C31.1704 15.5235 31.1704 10.1083 30.5364 7.51284ZM12.8969 20.4401V10.6069L20.8269 15.5236L12.8969 20.4401Z" fill="#C6C6C6"/>
</svg>
